<svg xmlns="http://www.w3.org/2000/svg" width="307.244" height="42.6" viewBox="0 0 307.244 42.6">
  <g id="Group_48012_00000013190209933295838920000001532218340315513473_" transform="translate(-256.556 -23.737)">
    <g id="Group_48016" data-name="Group 48016">
      <path id="Path_37619" data-name="Path 37619" d="M327,65.7h-6.6V55.8h-7.6v9.9h-6.6V41.5h6.6v9h7.6v-9H327Z" fill="#313131"/>
      <path id="Path_37620" data-name="Path 37620" d="M343.1,46.6a8.193,8.193,0,0,1,5.6,1.8,6.547,6.547,0,0,1,2,5V65.7h-4.5L345,63.2h-.1a8.046,8.046,0,0,1-1.6,1.6,6.633,6.633,0,0,1-1.9.9,9.78,9.78,0,0,1-2.6.3,5.364,5.364,0,0,1-4.9-2.7,6.866,6.866,0,0,1-.7-3.4,5.167,5.167,0,0,1,2.1-4.5c1.4-1,3.4-1.5,6.1-1.6l3.1-.1v-.3a2.445,2.445,0,0,0-.6-1.8,2.311,2.311,0,0,0-1.7-.5,8.082,8.082,0,0,0-2.5.4c-.9.3-1.8.6-2.7,1l-1.9-4.3a13.459,13.459,0,0,1,3.7-1.3C339.9,46.8,341.4,46.6,343.1,46.6Zm1.1,10.7-1.5.1a4.779,4.779,0,0,0-2.5.6,1.865,1.865,0,0,0-.7,1.6,1.736,1.736,0,0,0,1.9,1.9,2.724,2.724,0,0,0,2-.7,2.241,2.241,0,0,0,.8-1.9V57.3Z" fill="#313131"/>
      <path id="Path_37621" data-name="Path 37621" d="M368.5,46.6a4.1,4.1,0,0,1,1.1.1c.4,0,.7.1.9.1l-.6,6.1a1.949,1.949,0,0,0-.8-.1c-.3,0-.8-.1-1.4-.1a6.151,6.151,0,0,0-1.3.1,2.947,2.947,0,0,0-1.3.5,2.168,2.168,0,0,0-1,1.1,3.966,3.966,0,0,0-.4,2v9.2h-6.5V46.9H362l1,3h.3a6.991,6.991,0,0,1,1.3-1.7,5.675,5.675,0,0,1,1.8-1.2A7.789,7.789,0,0,1,368.5,46.6Z" fill="#313131"/>
      <path id="Path_37622" data-name="Path 37622" d="M381.6,39.9v5.8a11.482,11.482,0,0,1-.1,1.9,8.806,8.806,0,0,1-.2,1.7h.2a7.205,7.205,0,0,1,1.9-2,5.686,5.686,0,0,1,3.1-.8,5.552,5.552,0,0,1,4.8,2.5,12.336,12.336,0,0,1,1.9,7.2,14.533,14.533,0,0,1-.9,5.4,7.1,7.1,0,0,1-2.4,3.3,6.147,6.147,0,0,1-3.6,1.1,5.129,5.129,0,0,1-3-.7,14.281,14.281,0,0,1-1.8-1.5h-.4l-1,1.8H375V39.9Zm2.7,11.8a2.41,2.41,0,0,0-1.5.4,2.539,2.539,0,0,0-.9,1.3,6.872,6.872,0,0,0-.3,2.2v.9a7.192,7.192,0,0,0,.6,3.3,2.246,2.246,0,0,0,2.1,1.1,1.922,1.922,0,0,0,1.8-1.2,7.667,7.667,0,0,0,.6-3.4,7.667,7.667,0,0,0-.6-3.4A1.922,1.922,0,0,0,384.3,51.7Z" fill="#313131"/>
      <path id="Path_37623" data-name="Path 37623" d="M417,56.3a13.3,13.3,0,0,1-.6,4.2,8.945,8.945,0,0,1-1.9,3.1,7.714,7.714,0,0,1-3,1.9,12.262,12.262,0,0,1-3.9.6,10.636,10.636,0,0,1-3.7-.6,9.529,9.529,0,0,1-3-1.9,9.751,9.751,0,0,1-2-3.1,10.885,10.885,0,0,1-.7-4.2,12.2,12.2,0,0,1,1.1-5.3,8.069,8.069,0,0,1,3.3-3.3,10.37,10.37,0,0,1,5.1-1.1,10.607,10.607,0,0,1,4.8,1.1,8.069,8.069,0,0,1,3.3,3.3A10.922,10.922,0,0,1,417,56.3Zm-12.2,0a10.064,10.064,0,0,0,.3,2.7,3.932,3.932,0,0,0,.9,1.7,2.271,2.271,0,0,0,1.6.6,2.111,2.111,0,0,0,1.6-.6,3.424,3.424,0,0,0,.9-1.7,12.3,12.3,0,0,0,0-5.4,3.072,3.072,0,0,0-.9-1.6,2.066,2.066,0,0,0-1.6-.5,2.149,2.149,0,0,0-2.1,1.2A8.155,8.155,0,0,0,404.8,56.3Z" fill="#313131"/>
      <path id="Path_37624" data-name="Path 37624" d="M434.1,46.6a4.1,4.1,0,0,1,1.1.1c.4,0,.7.1.9.1l-.6,6.1a1.949,1.949,0,0,0-.8-.1c-.3,0-.8-.1-1.4-.1a6.151,6.151,0,0,0-1.3.1,2.947,2.947,0,0,0-1.3.5,2.168,2.168,0,0,0-1,1.1,3.966,3.966,0,0,0-.4,2v9.2h-6.5V46.9h4.8l1,3h.3a6.991,6.991,0,0,1,1.3-1.7A5.675,5.675,0,0,1,432,47,5.222,5.222,0,0,1,434.1,46.6Z" fill="#313131"/>
    </g>
    <g id="Group_48017" data-name="Group 48017">
      <path id="Path_37625" data-name="Path 37625" d="M455.9,59a6.97,6.97,0,0,1-1,3.8,6.757,6.757,0,0,1-3,2.5,11.914,11.914,0,0,1-4.9.9,21.053,21.053,0,0,1-2.5-.2,15.536,15.536,0,0,1-2.3-.5,18.027,18.027,0,0,1-2.1-.8V59.9a38.44,38.44,0,0,0,3.6,1.4,11.933,11.933,0,0,0,3.7.6,5.618,5.618,0,0,0,2-.3,2.012,2.012,0,0,0,1.1-.9,2.768,2.768,0,0,0,.3-1.3,2.452,2.452,0,0,0-.6-1.6,8.31,8.31,0,0,0-1.7-1.2,26.785,26.785,0,0,0-2.4-1.2,16.176,16.176,0,0,1-1.8-1,8.467,8.467,0,0,1-1.9-1.4,7.492,7.492,0,0,1-1.5-2,6.088,6.088,0,0,1-.6-2.8,6.2,6.2,0,0,1,1-3.7,7.32,7.32,0,0,1,2.8-2.4,11.525,11.525,0,0,1,4.4-.8,13.7,13.7,0,0,1,3.6.4,22.761,22.761,0,0,1,3.6,1.3L454,47a28.537,28.537,0,0,0-3-1.1,12.588,12.588,0,0,0-2.7-.4,3.808,3.808,0,0,0-1.6.3,1.789,1.789,0,0,0-1,.9,2.768,2.768,0,0,0-.3,1.3,2.456,2.456,0,0,0,.5,1.5,3.656,3.656,0,0,0,1.5,1.1c.7.3,1.5.8,2.5,1.3a30.493,30.493,0,0,1,3.2,1.8,5.923,5.923,0,0,1,2,2.2A4.944,4.944,0,0,1,455.9,59Z" fill="#fec256"/>
      <path id="Path_37626" data-name="Path 37626" d="M464.5,39.9a3.557,3.557,0,0,1,1.9.5,2.222,2.222,0,0,1,.8,2,2.481,2.481,0,0,1-.8,2,3.018,3.018,0,0,1-1.9.5,4.228,4.228,0,0,1-2-.5,2.346,2.346,0,0,1-.8-2,2.346,2.346,0,0,1,.8-2A4.228,4.228,0,0,1,464.5,39.9Zm2.5,7.3V65.8h-5.1V47.2Z" fill="#fec256"/>
      <path id="Path_37627" data-name="Path 37627" d="M480.2,66.1a6.257,6.257,0,0,1-5.1-2.4c-1.3-1.6-2-4-2-7.1,0-3.2.7-5.6,2-7.2a6.316,6.316,0,0,1,5.2-2.4,6.591,6.591,0,0,1,4.1,1.4,8.635,8.635,0,0,1,1.3,1.4h.2c-.1-.4-.1-.9-.2-1.6a14.768,14.768,0,0,1-.1-2.1V40.2h5.1V66h-3.9l-1-2.4h-.2a5.262,5.262,0,0,1-1.2,1.4,9.5,9.5,0,0,1-1.7,1A6.7,6.7,0,0,1,480.2,66.1ZM482,62a3.192,3.192,0,0,0,2.9-1.2,6.311,6.311,0,0,0,.9-3.7v-.5a8.726,8.726,0,0,0-.8-4.1,3.228,3.228,0,0,0-3.1-1.4,3.016,3.016,0,0,0-2.6,1.4,7.946,7.946,0,0,0-.9,4.2,6.713,6.713,0,0,0,1,4.1A2.857,2.857,0,0,0,482,62Z" fill="#fec256"/>
      <path id="Path_37628" data-name="Path 37628" d="M505.6,46.8a8.677,8.677,0,0,1,4.4,1,7.353,7.353,0,0,1,2.9,2.9,9.469,9.469,0,0,1,1,4.6v2.5h-12a5.452,5.452,0,0,0,1.3,3.4,4.459,4.459,0,0,0,3.3,1.2,11.488,11.488,0,0,0,3.3-.4,12.129,12.129,0,0,0,3-1.1v3.9a9.979,9.979,0,0,1-2.9,1,18.634,18.634,0,0,1-3.6.3,10.728,10.728,0,0,1-4.9-1A7.83,7.83,0,0,1,498,62a10.655,10.655,0,0,1-1.2-5.3,12.041,12.041,0,0,1,1.1-5.4A8.216,8.216,0,0,1,501,48,8.52,8.52,0,0,1,505.6,46.8Zm0,3.6a3.244,3.244,0,0,0-2.4.9,4.63,4.63,0,0,0-1.1,3h7.1a4.212,4.212,0,0,0-.4-2,2.758,2.758,0,0,0-1.2-1.4A4.228,4.228,0,0,0,505.6,50.4Z" fill="#fec256"/>
    </g>
    <g id="Group_48018" data-name="Group 48018">
      <path id="Path_37629" data-name="Path 37629" d="M528,41.5a17.281,17.281,0,0,1,5.5.8,5.97,5.97,0,0,1,3.3,2.4,7.236,7.236,0,0,1,1.1,4,7.635,7.635,0,0,1-.5,2.7,7.442,7.442,0,0,1-1.4,2.2,9.84,9.84,0,0,1-2.2,1.7l7.1,10.6h-7.4l-5.1-8.8h-1.7v8.8H520V41.5Zm-.1,4.9h-1.3V52h1.2a4.093,4.093,0,0,0,2.5-.7,2.728,2.728,0,0,0,1-2.4,2.2,2.2,0,0,0-.8-1.8A4.484,4.484,0,0,0,527.9,46.4Z" fill="#242424"/>
      <path id="Path_37630" data-name="Path 37630" d="M548.7,56.2,543,47h7.4l2.9,5.3,2.9-5.3h7.4l-5.9,9.2,6.1,9.6h-7.4l-3.2-5.7L550,65.8h-7.4Z" fill="#242424"/>
    </g>
    <g id="Group_47674_00000033370015724315096440000013596236990720135296_" transform="translate(1010.481 638.537)">
      <g id="Group_48019" data-name="Group 48019">
        <path id="Path_37631" data-name="Path 37631" d="M-737.6-592.1Z" fill="#fec256"/>
      </g>
      <g id="Group_48020" data-name="Group 48020">
        <path id="Path_37632" data-name="Path 37632" d="M-737.6-592.1Z" fill="#fec256"/>
      </g>
      <g id="Group_48021" data-name="Group 48021">
        <path id="Path_37633" data-name="Path 37633" d="M-711.2-595.9v21.7a1.3,1.3,0,0,1-.8,1.2,14.234,14.234,0,0,1-4.5.8h-.3a15.339,15.339,0,0,1-8.8-2.8,25.2,25.2,0,0,1-8.9,2.5,21.392,21.392,0,0,1-9.4-1.5,24.341,24.341,0,0,1-9.7-8,.764.764,0,0,1-.2-.5c-.1-.3-1.4-7.1,7.3-20.6a25.492,25.492,0,0,1,19.1-11.7h.5a4.009,4.009,0,0,1,2.7,2.8c.4,1.6.9,3.2,1.4,4.7v.1a2.92,2.92,0,0,1,.2.9,3.7,3.7,0,0,1-1.4,3.2l-.7.6h0l-.2.1h0l-1.8,1.4c-.1.1-.3.2-.4.4l-.1.1a2.669,2.669,0,0,1-2.3.3,4.423,4.423,0,0,1-1.5-.5l-4.2-1.9v.1c-.2,1-1.5,6.3-2.4,10.3h0a17.424,17.424,0,0,1,9.5-1.8c.3,0,.7.1,1,.1h0a10.656,10.656,0,0,1,4-2.6,17.092,17.092,0,0,1,5-1,26.964,26.964,0,0,1,5.7.2A1.575,1.575,0,0,1-711.2-595.9Z" fill="#fec256"/>
      </g>
    </g>
  </g>
</svg>
